<?xml version="1.0" encoding="UTF-8"?>
<svg xmlns="http://www.w3.org/2000/svg" xmlns:xlink="http://www.w3.org/1999/xlink" width="780px" height="703px" viewBox="0 0 881 703" version="1.1">
<g id="surface1">
<path style=" stroke:none;fill-rule:nonzero;fill:rgb(94.901961%,94.901961%,94.901961%);fill-opacity:1;" d="M 875.378906 1.921875 C 864.390625 9.019531 853.355469 15.832031 842.273438 22.355469 C 841.472656 22.832031 840.671875 23.304688 839.871094 23.769531 C 826.089844 31.839844 812.253906 39.449219 798.359375 46.597656 C 797.671875 46.960938 796.984375 47.3125 796.292969 47.660156 C 773.117188 59.527344 749.855469 70.113281 726.515625 79.410156 C 725.722656 79.726562 724.933594 80.042969 724.140625 80.347656 C 709.695312 86.042969 695.242188 91.234375 680.78125 95.921875 C 680.003906 96.171875 679.210938 96.429688 678.433594 96.667969 C 677.539062 96.960938 676.648438 97.246094 675.753906 97.527344 C 651.359375 105.234375 626.5625 111.59375 601.46875 116.570312 C 600.542969 116.753906 599.628906 116.933594 598.710938 117.113281 C 581.644531 120.414062 564.527344 123.050781 547.355469 125.027344 C 546.574219 125.128906 545.808594 125.21875 545.027344 125.296875 C 520.628906 128.027344 496.09375 129.398438 471.542969 129.398438 C 413.648438 129.398438 354.507812 121.738281 295.332031 106.589844 C 294.484375 106.375 293.636719 106.160156 292.792969 105.925781 C 282.804688 103.347656 272.816406 100.546875 262.824219 97.527344 C 256.558594 95.628906 250.269531 93.644531 243.964844 91.570312 C 243.207031 91.320312 242.449219 91.074219 241.691406 90.8125 C 214.878906 81.917969 187.878906 71.445312 160.699219 59.394531 C 159.875 59.03125 159.046875 58.660156 158.210938 58.285156 C 141.847656 50.984375 125.441406 43.117188 109 34.6875 C 108.300781 34.335938 107.601562 33.972656 106.898438 33.601562 C 87.835938 23.792969 68.757812 13.238281 49.667969 1.945312 L 50.820312 0 C 70.574219 11.6875 90.292969 22.5625 109.972656 32.628906 L 110.027344 32.652344 C 125.910156 40.789062 141.765625 48.390625 157.589844 55.460938 C 185.035156 67.761719 213.082031 78.667969 241.625 88.136719 C 243.511719 88.757812 245.386719 89.378906 247.273438 89.964844 C 263.199219 95.121094 279.097656 99.71875 294.972656 103.765625 C 295.828125 103.992188 296.675781 104.207031 297.535156 104.421875 C 380.652344 125.375 462.792969 131.429688 543.953125 122.585938 C 544.734375 122.515625 545.503906 122.425781 546.28125 122.324219 C 562.445312 120.527344 578.558594 118.125 594.625 115.113281 C 597.390625 114.59375 600.160156 114.0625 602.925781 113.496094 C 627.804688 108.523438 652.390625 102.195312 676.578125 94.542969 C 677.359375 94.292969 678.148438 94.046875 678.929688 93.785156 C 694.144531 88.9375 709.308594 83.539062 724.425781 77.589844 C 725.214844 77.273438 726.007812 76.96875 726.796875 76.652344 C 749.554688 67.621094 772.203125 57.359375 794.734375 45.863281 C 795.425781 45.527344 796.113281 45.175781 796.800781 44.800781 C 811.304688 37.375 825.753906 29.433594 840.152344 20.976562 C 840.964844 20.511719 841.765625 20.039062 842.570312 19.554688 C 853.128906 13.3125 863.660156 6.804688 874.160156 0.0234375 Z M 875.378906 1.921875 "/>
<path style=" stroke:none;fill-rule:nonzero;fill:rgb(94.901961%,94.901961%,94.901961%);fill-opacity:1;" d="M 157.589844 55.460938 L 110.027344 32.652344 L 109.972656 32.628906 L 107.328125 31.363281 L 106.898438 33.601562 L 93.820312 101.652344 L 160.699219 59.394531 L 162.898438 58.003906 Z M 97.027344 96.949219 L 109 34.6875 L 109 34.664062 L 158.234375 58.273438 L 158.210938 58.285156 Z M 97.027344 96.949219 "/>
<path style=" stroke:none;fill-rule:nonzero;fill:rgb(94.901961%,94.901961%,94.901961%);fill-opacity:1;" d="M 294.972656 103.765625 L 292.792969 105.925781 L 245.488281 152.589844 L 243.964844 91.570312 L 243.90625 89.175781 L 247.273438 89.964844 C 245.386719 89.378906 243.511719 88.757812 241.625 88.136719 L 241.691406 90.8125 L 243.363281 157.859375 L 295.332031 106.589844 L 297.535156 104.421875 C 296.675781 104.207031 295.828125 103.992188 294.972656 103.765625 Z M 294.972656 103.765625 "/>
<path style=" stroke:none;fill-rule:nonzero;fill:rgb(94.901961%,94.901961%,94.901961%);fill-opacity:1;" d="M 594.625 115.113281 L 599.953125 114.46875 L 598.710938 117.113281 L 569.03125 179.976562 L 547.355469 125.027344 L 546.28125 122.324219 C 545.503906 122.425781 544.734375 122.515625 543.953125 122.585938 L 545.027344 125.296875 L 568.847656 185.660156 L 601.46875 116.570312 L 602.925781 113.496094 C 600.160156 114.0625 597.390625 114.59375 594.625 115.113281 Z M 594.625 115.113281 "/>
<path style=" stroke:none;fill-rule:nonzero;fill:rgb(94.901961%,94.901961%,94.901961%);fill-opacity:1;" d="M 724.425781 77.589844 L 724.140625 80.347656 L 718.210938 138.925781 L 680.78125 95.921875 L 678.929688 93.785156 C 678.148438 94.046875 677.359375 94.292969 676.578125 94.542969 L 678.433594 96.667969 L 719.929688 144.351562 L 726.515625 79.410156 L 726.796875 76.652344 C 726.007812 76.96875 725.214844 77.273438 724.425781 77.589844 Z M 724.425781 77.589844 "/>
<path style=" stroke:none;fill-rule:nonzero;fill:rgb(94.901961%,94.901961%,94.901961%);fill-opacity:1;" d="M 840.152344 20.976562 L 839.871094 23.769531 L 833.316406 86.949219 L 798.359375 46.597656 L 796.800781 44.800781 C 796.113281 45.175781 795.425781 45.527344 794.734375 45.863281 L 796.292969 47.660156 L 835.023438 92.375 L 842.273438 22.355469 L 842.570312 19.554688 C 841.765625 20.039062 840.964844 20.511719 840.152344 20.976562 Z M 840.152344 20.976562 "/>
<path style=" stroke:none;fill-rule:nonzero;fill:rgb(94.901961%,94.901961%,94.901961%);fill-opacity:1;" d="M 545.910156 420.566406 C 532.050781 408.847656 523.628906 390.332031 525.839844 372.308594 C 528.046875 354.28125 541.722656 337.710938 559.460938 333.882812 C 577.203125 330.054688 597.425781 340.652344 602.8125 357.992188 C 605.777344 324.558594 609.195312 289.726562 626.960938 261.257812 C 643.042969 235.476562 670.902344 217.03125 701.09375 213.730469 C 731.285156 210.429688 763.074219 222.894531 781.902344 246.738281 C 800.734375 270.585938 805.34375 305.253906 792.15625 332.628906 C 782.441406 352.796875 764.542969 367.804688 745.789062 380.015625 C 685.191406 419.140625 612.511719 435.050781 541.125 424.820312 Z M 545.910156 420.566406 "/>
<path style=" stroke:none;fill-rule:nonzero;fill:rgb(100%,100%,100%);fill-opacity:1;" d="M 752.046875 223.585938 C 727.136719 243.890625 704.28125 266.597656 683.816406 291.382812 C 651.785156 330.039062 625.867188 373.378906 606.964844 419.894531 C 605.578125 423.285156 611.085938 424.765625 612.453125 421.410156 C 643.386719 345.8125 692.765625 279.183594 756.074219 227.613281 C 758.917969 225.296875 754.867188 221.289062 752.046875 223.585938 Z M 752.046875 223.585938 "/>
<path style=" stroke:none;fill-rule:nonzero;fill:rgb(94.901961%,94.901961%,94.901961%);fill-opacity:1;" d="M 258.550781 607.914062 C 255.726562 608.332031 252.894531 608.707031 250.058594 609.03125 C 181.328125 616.859375 112.015625 600.632812 53.886719 563.113281 C 35.136719 550.90625 17.234375 535.894531 7.523438 515.722656 C -5.671875 488.347656 -1.050781 453.683594 17.777344 429.835938 C 24.632812 421.226562 33.082031 414.019531 42.660156 408.609375 C 44.085938 407.785156 45.53125 407.015625 46.996094 406.28125 C 62.933594 398.261719 80.835938 394.976562 98.582031 396.820312 C 128.773438 400.121094 156.636719 418.578125 172.722656 444.347656 C 190.476562 472.816406 193.898438 507.652344 196.859375 541.082031 C 197.09375 540.316406 197.367188 539.558594 197.660156 538.824219 C 198.285156 537.25 199.042969 535.730469 199.917969 534.28125 L 199.917969 589.820312 C 199.929688 599.175781 207.507812 606.761719 216.863281 606.773438 L 257.261719 606.773438 Z M 258.550781 607.914062 "/>
<path style=" stroke:none;fill-rule:nonzero;fill:rgb(100%,100%,100%);fill-opacity:1;" d="M 47.628906 406.679688 C 72.542969 426.984375 95.394531 449.695312 115.863281 474.480469 C 136.332031 499.238281 154.351562 525.925781 169.671875 554.167969 C 178.234375 570.011719 185.925781 586.308594 192.714844 602.988281 C 194.097656 606.382812 188.589844 607.859375 187.222656 604.503906 C 175.199219 575.097656 160.328125 546.9375 142.816406 520.429688 C 125.390625 494.023438 105.445312 469.367188 83.257812 446.808594 C 70.710938 434.058594 57.472656 422.007812 43.601562 410.710938 C 40.761719 408.394531 44.808594 404.382812 47.628906 406.679688 Z M 47.628906 406.679688 "/>
<path style=" stroke:none;fill-rule:nonzero;fill:rgb(94.901961%,94.901961%,94.901961%);fill-opacity:1;" d="M 589.027344 480.1875 L 295.925781 480.1875 L 295.925781 447.976562 C 295.925781 442.046875 291.121094 437.238281 285.195312 437.238281 C 279.269531 437.238281 274.464844 442.046875 274.464844 447.976562 L 274.464844 490.925781 C 274.484375 496.847656 279.277344 501.644531 285.195312 501.660156 L 589.027344 501.660156 C 594.953125 501.660156 599.757812 496.855469 599.757812 490.925781 C 599.757812 484.996094 594.953125 480.1875 589.027344 480.1875 Z M 589.027344 480.1875 "/>
<path style=" stroke:none;fill-rule:nonzero;fill:rgb(24.705882%,23.921569%,33.72549%);fill-opacity:1;" d="M 879.472656 702.773438 L 45.578125 702.773438 C 44.835938 702.769531 44.238281 702.167969 44.238281 701.425781 C 44.238281 700.683594 44.835938 700.082031 45.578125 700.082031 L 879.472656 700.082031 C 880.214844 700.082031 880.8125 700.683594 880.8125 701.425781 C 880.8125 702.167969 880.214844 702.769531 879.472656 702.773438 Z M 879.472656 702.773438 "/>
<path style=" stroke:none;fill-rule:nonzero;fill:rgb(24.705882%,23.921569%,33.72549%);fill-opacity:1;" d="M 780.472656 606.773438 L 144.574219 606.773438 C 133.976562 606.789062 125.386719 615.382812 125.371094 625.988281 L 125.371094 683.628906 C 125.386719 694.234375 133.976562 702.828125 144.574219 702.839844 L 780.472656 702.839844 C 791.074219 702.828125 799.660156 694.234375 799.675781 683.628906 L 799.675781 625.988281 C 799.660156 615.382812 791.074219 606.789062 780.472656 606.773438 Z M 797.417969 683.628906 C 797.40625 692.984375 789.828125 700.570312 780.472656 700.582031 L 144.574219 700.582031 C 135.222656 700.570312 127.640625 692.984375 127.628906 683.628906 L 127.628906 625.988281 C 127.640625 616.628906 135.222656 609.042969 144.574219 609.03125 L 780.472656 609.03125 C 789.828125 609.042969 797.40625 616.628906 797.417969 625.988281 Z M 797.417969 683.628906 "/>
<path style=" stroke:none;fill-rule:nonzero;fill:rgb(94.901961%,94.901961%,94.901961%);fill-opacity:1;" d="M 749.414062 667.804688 L 161.515625 667.804688 L 161.515625 635.59375 C 161.515625 629.664062 156.710938 624.855469 150.785156 624.855469 C 144.859375 624.855469 140.054688 629.664062 140.054688 635.59375 L 140.054688 678.542969 C 140.074219 684.464844 144.867188 689.261719 150.785156 689.277344 L 749.414062 689.277344 C 755.339844 689.277344 760.144531 684.472656 760.144531 678.542969 C 760.144531 672.613281 755.339844 667.804688 749.414062 667.804688 Z M 749.414062 667.804688 "/>
<path style=" stroke:none;fill-rule:nonzero;fill:rgb(94.901961%,94.901961%,94.901961%);fill-opacity:1;" d="M 644.371094 568.34375 L 234.933594 568.34375 L 234.933594 536.132812 C 234.933594 530.203125 230.128906 525.394531 224.203125 525.394531 C 218.277344 525.394531 213.472656 530.203125 213.472656 536.132812 L 213.472656 579.082031 C 213.492188 585.003906 218.285156 589.800781 224.203125 589.820312 L 644.371094 589.820312 C 650.296875 589.820312 655.101562 585.011719 655.101562 579.082031 C 655.101562 573.152344 650.296875 568.34375 644.371094 568.34375 Z M 644.371094 568.34375 "/>
<path style=" stroke:none;fill-rule:nonzero;fill:rgb(24.705882%,23.921569%,33.72549%);fill-opacity:1;" d="M 684.378906 643.019531 C 594.019531 620.414062 402.003906 652.0625 398.617188 652.0625 C 395.308594 652.0625 185.246094 683.3125 192.167969 609.03125 C 192.238281 608.289062 192.328125 607.542969 192.441406 606.773438 L 756.316406 606.773438 C 756.449219 607.441406 756.585938 608.195312 756.710938 609.03125 C 758.890625 623.761719 757.816406 661.394531 684.378906 643.019531 Z M 684.378906 643.019531 "/>
<path style=" stroke:none;fill-rule:nonzero;fill:rgb(24.705882%,23.921569%,33.72549%);fill-opacity:1;" d="M 709.316406 512.964844 L 216.859375 512.964844 C 206.261719 512.980469 197.675781 521.574219 197.660156 532.179688 L 197.660156 589.820312 C 197.683594 600.421875 206.265625 609.007812 216.859375 609.03125 L 709.316406 609.03125 C 719.90625 608.992188 728.480469 600.414062 728.519531 589.820312 L 728.519531 532.179688 C 728.503906 521.574219 719.914062 512.980469 709.316406 512.964844 Z M 726.257812 589.820312 C 726.238281 599.175781 718.664062 606.753906 709.316406 606.773438 L 216.859375 606.773438 C 207.511719 606.753906 199.9375 599.175781 199.917969 589.820312 L 199.917969 532.179688 C 199.929688 522.820312 207.507812 515.234375 216.859375 515.222656 L 709.316406 515.222656 C 718.667969 515.234375 726.246094 522.820312 726.257812 532.179688 Z M 726.257812 589.820312 "/>
<path style=" stroke:none;fill-rule:nonzero;fill:rgb(24.705882%,23.921569%,33.72549%);fill-opacity:1;" d="M 646.664062 544.722656 C 567.6875 524.964844 399.855469 552.628906 396.894531 552.628906 C 394.003906 552.628906 210.394531 579.941406 216.449219 515.019531 C 216.507812 514.367188 216.585938 513.714844 216.683594 513.042969 L 709.542969 513.042969 C 709.660156 513.625 709.78125 514.289062 709.886719 515.019531 C 711.792969 527.890625 710.855469 560.789062 646.664062 544.722656 Z M 646.664062 544.722656 "/>
<path style=" stroke:none;fill-rule:nonzero;fill:rgb(24.705882%,23.921569%,33.72549%);fill-opacity:1;" d="M 648.324219 514.09375 L 276.722656 514.09375 C 266.125 514.082031 257.535156 505.488281 257.523438 494.878906 L 257.523438 437.238281 C 257.535156 426.632812 266.125 418.035156 276.722656 418.023438 L 648.324219 418.023438 C 658.925781 418.035156 667.515625 426.632812 667.527344 437.238281 L 667.527344 494.878906 C 667.515625 505.488281 658.925781 514.082031 648.324219 514.09375 Z M 276.722656 420.285156 C 267.371094 420.296875 259.792969 427.878906 259.78125 437.238281 L 259.78125 494.878906 C 259.792969 504.238281 267.371094 511.824219 276.722656 511.832031 L 648.324219 511.832031 C 657.679688 511.824219 665.257812 504.238281 665.269531 494.878906 L 665.269531 437.238281 C 665.257812 427.878906 657.679688 420.296875 648.324219 420.285156 Z M 276.722656 420.285156 "/>
<path style=" stroke:none;fill-rule:nonzero;fill:rgb(24.705882%,23.921569%,33.72549%);fill-opacity:1;" d="M 603.914062 442.441406 C 543.351562 427.289062 414.65625 448.5 412.386719 448.5 C 410.167969 448.5 269.378906 469.445312 274.019531 419.664062 C 274.0625 419.164062 274.125 418.664062 274.199219 418.148438 L 652.128906 418.148438 C 652.21875 418.59375 652.308594 419.101562 652.394531 419.664062 C 653.855469 429.53125 653.136719 454.757812 603.914062 442.441406 Z M 603.914062 442.441406 "/>
<path style=" stroke:none;fill-rule:nonzero;fill:rgb(24.705882%,23.921569%,33.72549%);fill-opacity:1;" d="M 501.402344 420.363281 C 501.402344 418.492188 484.207031 416.972656 462.996094 416.972656 C 441.789062 416.972656 424.59375 418.492188 424.59375 420.363281 C 424.59375 422.238281 441.789062 423.753906 462.996094 423.753906 C 484.207031 423.753906 501.402344 422.238281 501.402344 420.363281 Z M 501.402344 420.363281 "/>
<path style=" stroke:none;fill-rule:nonzero;fill:rgb(100%,72.156863%,72.156863%);fill-opacity:1;" d="M 460.832031 294.511719 C 460.800781 295.136719 460.820312 295.761719 460.886719 296.382812 L 417.980469 332.417969 L 405.183594 327.78125 L 395.667969 346.1875 L 423.644531 359.511719 L 470.550781 306.839844 C 475.402344 307.722656 480.289062 305.507812 482.828125 301.28125 C 485.367188 297.050781 485.027344 291.695312 481.976562 287.820312 C 478.921875 283.949219 473.792969 282.371094 469.09375 283.859375 C 464.394531 285.34375 461.105469 289.585938 460.832031 294.511719 Z M 460.832031 294.511719 "/>
<path style=" stroke:none;fill-rule:nonzero;fill:rgb(18.431373%,18.039216%,25.490196%);fill-opacity:1;" d="M 403.285156 355.019531 L 361.851562 340.054688 C 353.921875 337.199219 349.8125 328.449219 352.675781 320.515625 C 355.535156 312.585938 364.28125 308.480469 372.207031 311.351562 L 413.640625 326.316406 C 416.277344 327.269531 417.648438 330.183594 416.695312 332.824219 L 409.792969 351.960938 C 408.835938 354.601562 405.925781 355.96875 403.285156 355.019531 Z M 403.285156 355.019531 "/>
<path style=" stroke:none;fill-rule:nonzero;fill:rgb(24.705882%,23.921569%,33.72549%);fill-opacity:1;" d="M 459.703125 266.574219 C 459.078125 266.574219 458.570312 266.070312 458.570312 265.445312 L 458.570312 223.625 C 458.570312 223.003906 459.078125 222.496094 459.703125 222.496094 C 460.324219 222.496094 460.832031 223.003906 460.832031 223.625 L 460.832031 265.445312 C 460.832031 266.070312 460.324219 266.574219 459.703125 266.574219 Z M 459.703125 266.574219 "/>
<path style=" stroke:none;fill-rule:nonzero;fill:rgb(100%,39.607843%,51.764706%);fill-opacity:1;" d="M 478.902344 214.585938 C 489.414062 224.355469 476.308594 245.101562 461.960938 245.101562 C 447.613281 245.101562 435.980469 233.460938 435.980469 219.105469 C 435.980469 204.75 464.058594 141.417969 458.570312 154.683594 C 456.820312 158.917969 466.867188 203.394531 478.902344 214.585938 Z M 478.902344 214.585938 "/>
<path style=" stroke:none;fill-rule:nonzero;fill:rgb(80%,80%,80%);fill-opacity:1;" d="M 469.867188 379.03125 L 450.664062 379.03125 C 447.859375 379.027344 445.585938 376.753906 445.582031 373.945312 L 445.582031 258.664062 C 445.585938 255.855469 447.859375 253.582031 450.664062 253.578125 L 469.867188 253.578125 C 472.671875 253.582031 474.945312 255.855469 474.949219 258.664062 L 474.949219 373.945312 C 474.945312 376.753906 472.671875 379.027344 469.867188 379.03125 Z M 469.867188 379.03125 "/>
<path style=" stroke:none;fill-rule:nonzero;fill:rgb(100%,72.156863%,72.156863%);fill-opacity:1;" d="M 372.941406 500.808594 L 386.789062 500.808594 L 393.375 447.363281 L 372.9375 447.363281 Z M 372.941406 500.808594 "/>
<path style=" stroke:none;fill-rule:nonzero;fill:rgb(18.431373%,18.039216%,25.490196%);fill-opacity:1;" d="M 413.492188 513.671875 L 369.972656 513.675781 L 369.972656 496.851562 L 396.679688 496.847656 C 405.964844 496.847656 413.492188 504.382812 413.492188 513.671875 Z M 413.492188 513.671875 "/>
<path style=" stroke:none;fill-rule:nonzero;fill:rgb(100%,72.156863%,72.156863%);fill-opacity:1;" d="M 338.71875 482.910156 L 350.046875 490.878906 L 386.15625 450.949219 L 369.4375 439.1875 Z M 338.71875 482.910156 "/>
<path style=" stroke:none;fill-rule:nonzero;fill:rgb(18.431373%,18.039216%,25.490196%);fill-opacity:1;" d="M 364.496094 516.773438 L 328.894531 491.726562 L 338.566406 477.964844 L 360.414062 493.332031 C 368.007812 498.675781 369.835938 509.171875 364.496094 516.773438 Z M 364.496094 516.773438 "/>
<path style=" stroke:none;fill-rule:nonzero;fill:rgb(100%,72.156863%,72.156863%);fill-opacity:1;" d="M 403.238281 404.53125 C 403.238281 404.53125 437.796875 400.453125 431.59375 422.890625 C 425.390625 445.328125 356.277344 464.707031 356.277344 464.707031 Z M 403.238281 404.53125 "/>
<path style=" stroke:none;fill-rule:nonzero;fill:rgb(100%,72.156863%,72.156863%);fill-opacity:1;" d="M 407.195312 262.277344 C 407.195312 277.609375 394.777344 290.039062 379.457031 290.039062 C 364.132812 290.039062 351.714844 277.609375 351.714844 262.277344 C 351.714844 246.945312 364.132812 234.519531 379.457031 234.519531 C 394.777344 234.519531 407.195312 246.945312 407.195312 262.277344 Z M 407.195312 262.277344 "/>
<path style=" stroke:none;fill-rule:nonzero;fill:rgb(18.431373%,18.039216%,25.490196%);fill-opacity:1;" d="M 290.984375 460.113281 C 275.199219 441.722656 269.675781 413.492188 294.851562 390.015625 C 301.066406 384.359375 308.105469 379.683594 315.726562 376.140625 L 336.015625 319.367188 C 340.332031 307.226562 351.714844 299.03125 364.589844 298.800781 C 377.097656 298.257812 388.59375 305.65625 393.292969 317.269531 C 395.769531 323.035156 396.054688 329.511719 394.089844 335.472656 C 388.050781 354.292969 380.117188 372.453125 370.417969 389.671875 L 371.464844 398.070312 L 422.75 402.628906 L 422.269531 403.40625 C 422.019531 403.8125 396.921875 442.078125 364.8125 467.476562 C 353.835938 476.164062 342.484375 479.761719 331.769531 479.761719 C 315.519531 479.757812 300.742188 471.484375 290.984375 460.113281 Z M 290.984375 460.113281 "/>
<path style=" stroke:none;fill-rule:nonzero;fill:rgb(100%,72.156863%,72.156863%);fill-opacity:1;" d="M 462.21875 333.277344 C 461.929688 333.828125 461.679688 334.40625 461.476562 334.996094 L 407.332031 349.363281 L 397.71875 339.726562 L 381.289062 352.339844 L 400.949219 376.300781 L 465.78125 348.574219 C 469.796875 351.433594 475.164062 351.507812 479.257812 348.761719 C 483.351562 346.015625 485.320312 341.019531 484.199219 336.214844 C 483.082031 331.414062 479.109375 327.800781 474.226562 327.148438 C 469.339844 326.496094 464.558594 328.9375 462.21875 333.277344 Z M 462.21875 333.277344 "/>
<path style=" stroke:none;fill-rule:nonzero;fill:rgb(18.431373%,18.039216%,25.490196%);fill-opacity:1;" d="M 384.429688 363.574219 L 353.28125 332.402344 C 347.320312 326.445312 347.320312 316.78125 353.277344 310.820312 C 359.234375 304.859375 368.894531 304.863281 374.847656 310.824219 L 405.996094 341.996094 C 407.980469 343.980469 407.980469 347.199219 405.996094 349.1875 L 391.617188 363.574219 C 389.632812 365.554688 386.417969 365.554688 384.429688 363.574219 Z M 384.429688 363.574219 "/>
<path style=" stroke:none;fill-rule:nonzero;fill:rgb(18.431373%,18.039216%,25.490196%);fill-opacity:1;" d="M 286.144531 270.988281 C 291.054688 265.136719 293.160156 257.480469 294.851562 250.03125 C 297.53125 238.246094 299.605469 226.054688 305.558594 215.539062 C 311.511719 205.019531 322.449219 196.304688 334.511719 196.96875 C 346.507812 197.625 356.203125 207.28125 361.347656 218.269531 C 363.867188 217.289062 366.6875 217.425781 369.101562 218.640625 C 372.8125 220.675781 374.199219 226.453125 371.109375 229.34375 C 377.675781 226.214844 385.265625 226.027344 391.980469 228.824219 C 400.683594 232.53125 406.585938 240.804688 407.261719 250.246094 C 407.523438 254.046875 406.199219 257.785156 403.605469 260.570312 C 398.28125 266.054688 390.753906 264.164062 384.058594 262.765625 C 377.738281 261.445312 370.035156 261.089844 366.476562 267.117188 C 365.070312 269.628906 364.679688 272.582031 365.375 275.375 C 366.742188 281.394531 371.191406 285.585938 375.511719 289.597656 L 376.21875 290.910156 C 360.96875 293.886719 344.3125 283.460938 340.3125 268.4375 C 336.3125 253.414062 345.574219 236.082031 360.285156 231.070312 C 358.292969 231.132812 356.421875 230.109375 355.394531 228.398438 C 354.371094 226.6875 354.351562 224.554688 355.347656 222.824219 C 351.113281 220.707031 346.664062 219.1875 342 219.492188 C 334.402344 219.992188 327.828125 225.402344 323.875 231.914062 C 319.921875 238.425781 318.128906 245.980469 316.316406 253.382812 C 314.503906 260.78125 312.539062 268.324219 308.3125 274.660156 C 302.375 283.558594 292.582031 289.125 281.902344 289.671875 C 271.226562 290.222656 260.914062 285.6875 254.097656 277.441406 C 265.015625 282.738281 278.125 280.097656 286.144531 270.988281 Z M 286.144531 270.988281 "/>
</g>
</svg>
