<?xml version="1.0" encoding="UTF-8"?>
<svg xmlns="http://www.w3.org/2000/svg" xmlns:xlink="http://www.w3.org/1999/xlink" width="780px" height="703px" viewBox="0 0 889 703" version="1.1">
<g id="surface1">
<path style=" stroke:none;fill-rule:nonzero;fill:rgb(61.960784%,38.039216%,41.568627%);fill-opacity:1;" d="M 558.820312 640.382812 L 545.386719 640.382812 L 538.996094 588.550781 L 558.824219 588.550781 Z M 558.820312 640.382812 "/>
<path style=" stroke:none;fill-rule:nonzero;fill:rgb(18.431373%,18.039216%,25.490196%);fill-opacity:1;" d="M 562.246094 653.410156 L 518.929688 653.40625 L 518.929688 652.859375 C 518.929688 643.546875 526.476562 635.996094 535.789062 635.996094 L 562.246094 635.996094 Z M 562.246094 653.410156 "/>
<path style=" stroke:none;fill-rule:nonzero;fill:rgb(61.960784%,38.039216%,41.568627%);fill-opacity:1;" d="M 510.605469 640.382812 L 497.171875 640.382812 L 490.78125 588.550781 L 510.609375 588.550781 Z M 510.605469 640.382812 "/>
<path style=" stroke:none;fill-rule:nonzero;fill:rgb(18.431373%,18.039216%,25.490196%);fill-opacity:1;" d="M 514.03125 653.410156 L 470.714844 653.40625 L 470.714844 652.859375 C 470.714844 643.546875 478.261719 635.996094 487.574219 635.996094 L 514.03125 635.996094 Z M 514.03125 653.410156 "/>
<path style=" stroke:none;fill-rule:nonzero;fill:rgb(61.960784%,38.039216%,41.568627%);fill-opacity:1;" d="M 354.140625 277.195312 C 356.3125 280.183594 359.699219 282.058594 363.386719 282.308594 C 367.074219 282.5625 370.683594 281.167969 373.242188 278.503906 L 399.824219 288.886719 L 410.074219 274.269531 L 372.328125 260.132812 C 367.460938 256.035156 360.296875 256.230469 355.65625 260.582031 C 351.015625 264.933594 350.363281 272.074219 354.140625 277.195312 Z M 354.140625 277.195312 "/>
<path style=" stroke:none;fill-rule:nonzero;fill:rgb(18.431373%,18.039216%,25.490196%);fill-opacity:1;" d="M 510.433594 365.769531 L 475.4375 377.1875 L 487.128906 625.117188 L 514.140625 625.785156 L 527.964844 450.941406 L 531.101562 625.09375 L 564.503906 626.933594 L 576.816406 365.769531 Z M 510.433594 365.769531 "/>
<path style=" stroke:none;fill-rule:nonzero;fill:rgb(89.411765%,89.411765%,89.411765%);fill-opacity:1;" d="M 486.820312 219.621094 L 576.648438 200.097656 L 586.636719 277.464844 L 578.320312 314.429688 L 581.652344 370.609375 C 581.652344 370.609375 510.625 405.96875 475.4375 377.1875 C 475.4375 377.1875 503.71875 302.886719 487.324219 268.105469 Z M 486.820312 219.621094 "/>
<path style=" stroke:none;fill-rule:nonzero;fill:rgb(89.411765%,89.411765%,89.411765%);fill-opacity:1;" d="M 502.378906 230.5625 L 486.820312 219.621094 C 486.820312 219.621094 485.902344 218.347656 472.9375 233.507812 C 459.972656 248.667969 433.671875 272.78125 433.671875 272.78125 L 389.839844 256.339844 L 381.855469 285.851562 L 432.796875 309.597656 L 504.917969 261.417969 Z M 502.378906 230.5625 "/>
<path style=" stroke:none;fill-rule:nonzero;fill:rgb(61.960784%,38.039216%,41.568627%);fill-opacity:1;" d="M 581.667969 399.609375 C 585.011719 398.03125 587.480469 395.050781 588.417969 391.476562 C 589.351562 387.898438 588.65625 384.09375 586.515625 381.078125 L 601.664062 356.890625 L 589.214844 344.09375 L 568.296875 378.554688 C 563.367188 382.578125 562.222656 389.652344 565.632812 395.023438 C 569.046875 400.394531 575.933594 402.363281 581.667969 399.609375 Z M 581.667969 399.609375 "/>
<path style=" stroke:none;fill-rule:nonzero;fill:rgb(89.411765%,89.411765%,89.411765%);fill-opacity:1;" d="M 562.636719 215.339844 L 576.648438 200.097656 C 576.648438 200.097656 592.261719 194.660156 605.015625 222.761719 C 617.769531 250.859375 632.015625 307.855469 632.015625 307.855469 L 598.707031 372.027344 L 572.839844 360.464844 L 598.707031 307.402344 L 571.335938 268.105469 Z M 562.636719 215.339844 "/>
<path style=" stroke:none;fill-rule:nonzero;fill:rgb(61.960784%,38.039216%,41.568627%);fill-opacity:1;" d="M 550.480469 154.171875 C 558.203125 168.304688 553.011719 186.027344 538.878906 193.753906 C 524.75 201.480469 507.03125 196.285156 499.308594 182.152344 C 491.585938 168.019531 496.777344 150.296875 510.90625 142.570312 C 525.039062 134.84375 542.753906 140.039062 550.480469 154.171875 Z M 550.480469 154.171875 "/>
<path style=" stroke:none;fill-rule:nonzero;fill:rgb(18.431373%,18.039216%,25.490196%);fill-opacity:1;" d="M 549.480469 142.082031 C 548.101562 136.289062 543.277344 131.71875 537.722656 129.574219 C 532.171875 127.433594 525.984375 127.453125 520.117188 128.449219 C 510.378906 130.105469 501.28125 134.308594 492.320312 138.464844 L 499.226562 141.773438 L 489.695312 142.320312 L 497.0625 146.128906 C 493.042969 149.1875 491.175781 154.304688 492.277344 159.230469 C 492.65625 160.808594 493.667969 162.550781 495.292969 162.605469 C 497.253906 162.671875 498.277344 160.382812 499.648438 158.980469 C 501.476562 157.117188 504.363281 156.703125 506.949219 157.054688 C 509.535156 157.40625 511.988281 158.398438 514.542969 158.949219 C 521.074219 160.3125 527.875 158.734375 533.140625 154.640625 L 542.328125 176.761719 C 542.089844 174.476562 543.316406 172.285156 545.386719 171.292969 C 547.460938 170.300781 549.9375 170.714844 551.570312 172.335938 C 553.203125 173.953125 553.640625 176.425781 552.667969 178.507812 C 556.644531 172.507812 559.84375 165.691406 559.953125 158.496094 C 560.0625 151.300781 556.492188 143.71875 549.960938 140.699219 "/>
<path style=" stroke:none;fill-rule:nonzero;fill:rgb(94.901961%,94.901961%,94.901961%);fill-opacity:1;" d="M 211.558594 588.980469 L 199.136719 608.511719 L 206.371094 583.085938 C 191.097656 567.140625 169.949219 555.480469 169.949219 555.480469 C 169.949219 555.480469 143.910156 598.285156 150.921875 624.613281 C 157.929688 650.945312 176.023438 655.972656 195.328125 650.832031 C 214.632812 645.691406 227.835938 632.328125 220.828125 606 C 219.269531 600.136719 215.878906 594.382812 211.558594 588.980469 Z M 211.558594 588.980469 "/>
<path style=" stroke:none;fill-rule:nonzero;fill:rgb(100%,100%,100%);fill-opacity:1;" d="M 195.125 610.457031 L 195.46875 611.753906 C 199.410156 626.863281 199.996094 639.3125 197.210938 648.929688 C 197.175781 649.070312 197.128906 649.207031 197.089844 649.347656 L 196.441406 649.15625 L 195.820312 648.960938 C 198.972656 638.539062 197.566406 625.363281 194.132812 612.1875 C 194.027344 611.761719 193.917969 611.328125 193.796875 610.902344 C 192.296875 605.335938 190.457031 599.792969 188.453125 594.460938 C 188.300781 594.046875 188.140625 593.628906 187.980469 593.210938 C 185.300781 586.191406 182.375 579.582031 179.660156 573.882812 C 179.46875 573.480469 179.273438 573.078125 179.078125 572.683594 C 174.445312 563.058594 170.519531 556.242188 169.636719 554.734375 C 169.535156 554.550781 169.472656 554.449219 169.457031 554.425781 L 170.023438 554.089844 L 170.027344 554.082031 L 170.597656 553.742188 C 170.613281 553.765625 170.816406 554.105469 171.179688 554.738281 C 172.542969 557.097656 176.167969 563.53125 180.347656 572.175781 C 180.53125 572.566406 180.730469 572.964844 180.917969 573.371094 C 183.125 577.992188 185.464844 583.1875 187.691406 588.707031 C 188.253906 590.089844 188.789062 591.460938 189.300781 592.820312 C 189.46875 593.234375 189.628906 593.652344 189.777344 594.066406 C 191.945312 599.828125 193.726562 605.292969 195.125 610.457031 Z M 195.125 610.457031 "/>
<path style=" stroke:none;fill-rule:nonzero;fill:rgb(100%,100%,100%);fill-opacity:1;" d="M 180.347656 572.175781 C 179.933594 572.347656 179.511719 572.519531 179.078125 572.683594 C 177.910156 573.128906 176.714844 573.511719 175.503906 573.835938 C 170.351562 575.214844 164.953125 575.421875 159.707031 574.4375 C 159.527344 574.847656 159.347656 575.261719 159.164062 575.683594 C 164.695312 576.769531 170.402344 576.574219 175.847656 575.121094 C 177.140625 574.777344 178.410156 574.363281 179.660156 573.882812 C 180.085938 573.722656 180.507812 573.550781 180.917969 573.371094 C 184.335938 571.914062 187.511719 569.949219 190.339844 567.539062 C 189.96875 567.257812 189.605469 566.984375 189.253906 566.714844 C 186.570312 568.960938 183.566406 570.800781 180.347656 572.175781 Z M 180.347656 572.175781 "/>
<path style=" stroke:none;fill-rule:nonzero;fill:rgb(100%,100%,100%);fill-opacity:1;" d="M 189.300781 592.820312 C 188.863281 592.960938 188.425781 593.09375 187.980469 593.210938 C 187.847656 593.253906 187.707031 593.292969 187.574219 593.328125 C 176.230469 596.347656 164.128906 593.625 155.171875 586.039062 C 155.015625 586.488281 154.859375 586.933594 154.714844 587.386719 C 163.96875 595.007812 176.332031 597.695312 187.914062 594.613281 C 188.09375 594.566406 188.273438 594.515625 188.453125 594.460938 C 188.902344 594.335938 189.339844 594.207031 189.777344 594.066406 C 196.542969 591.890625 202.539062 587.808594 207.046875 582.3125 C 206.738281 581.988281 206.433594 581.664062 206.121094 581.34375 C 201.75 586.722656 195.90625 590.710938 189.300781 592.820312 Z M 189.300781 592.820312 "/>
<path style=" stroke:none;fill-rule:nonzero;fill:rgb(100%,100%,100%);fill-opacity:1;" d="M 195.125 610.457031 C 194.683594 610.617188 194.242188 610.761719 193.796875 610.902344 C 193.320312 611.046875 192.84375 611.1875 192.359375 611.316406 C 176.933594 615.40625 160.660156 608.835938 152.390625 595.183594 C 152.242188 595.78125 152.089844 596.371094 151.953125 596.964844 C 160.746094 610.417969 177.167969 616.722656 192.703125 612.601562 C 193.183594 612.472656 193.664062 612.339844 194.132812 612.1875 C 194.585938 612.054688 195.027344 611.90625 195.46875 611.753906 C 204.363281 608.625 211.734375 602.234375 216.09375 593.871094 C 215.832031 593.433594 215.554688 593.003906 215.273438 592.570312 C 211.136719 600.925781 203.910156 607.34375 195.125 610.457031 Z M 195.125 610.457031 "/>
<path style=" stroke:none;fill-rule:nonzero;fill:rgb(94.901961%,94.901961%,94.901961%);fill-opacity:1;" d="M 696.042969 591.015625 L 683.800781 610.265625 L 690.933594 585.207031 C 675.878906 569.496094 655.039062 558.003906 655.039062 558.003906 C 655.039062 558.003906 629.378906 600.183594 636.285156 626.132812 C 643.191406 652.082031 661.023438 657.035156 680.050781 651.96875 C 699.074219 646.902344 712.085938 633.738281 705.179688 607.789062 C 703.640625 602.011719 700.300781 596.34375 696.042969 591.015625 Z M 696.042969 591.015625 "/>
<path style=" stroke:none;fill-rule:nonzero;fill:rgb(100%,100%,100%);fill-opacity:1;" d="M 679.847656 612.183594 L 680.1875 613.460938 C 684.070312 628.347656 684.648438 640.617188 681.90625 650.09375 C 681.867188 650.234375 681.820312 650.367188 681.785156 650.507812 L 681.144531 650.316406 L 680.53125 650.128906 C 683.640625 639.855469 682.253906 626.875 678.871094 613.886719 C 678.765625 613.46875 678.660156 613.042969 678.539062 612.617188 C 677.058594 607.132812 675.246094 601.671875 673.273438 596.417969 C 673.125 596.011719 672.964844 595.597656 672.808594 595.1875 C 670.167969 588.269531 667.28125 581.753906 664.609375 576.140625 C 664.421875 575.742188 664.226562 575.347656 664.035156 574.957031 C 659.46875 565.472656 655.601562 558.753906 654.730469 557.269531 C 654.628906 557.085938 654.566406 556.988281 654.554688 556.964844 L 655.109375 556.632812 L 655.113281 556.625 L 655.675781 556.292969 C 655.691406 556.316406 655.894531 556.648438 656.25 557.273438 C 657.59375 559.597656 661.167969 565.9375 665.285156 574.457031 C 665.46875 574.839844 665.660156 575.234375 665.847656 575.632812 C 668.023438 580.1875 670.328125 585.308594 672.523438 590.746094 C 673.074219 592.113281 673.605469 593.460938 674.109375 594.800781 C 674.273438 595.210938 674.429688 595.621094 674.578125 596.03125 C 676.714844 601.707031 678.46875 607.089844 679.847656 612.183594 Z M 679.847656 612.183594 "/>
<path style=" stroke:none;fill-rule:nonzero;fill:rgb(100%,100%,100%);fill-opacity:1;" d="M 665.285156 574.457031 C 664.875 574.625 664.460938 574.796875 664.035156 574.957031 C 662.882812 575.394531 661.707031 575.773438 660.511719 576.089844 C 655.433594 577.453125 650.113281 577.65625 644.945312 576.683594 C 644.765625 577.089844 644.589844 577.496094 644.410156 577.910156 C 649.859375 578.984375 655.484375 578.792969 660.851562 577.359375 C 662.125 577.019531 663.378906 576.613281 664.609375 576.140625 C 665.027344 575.980469 665.441406 575.808594 665.847656 575.632812 C 669.214844 574.199219 672.347656 572.261719 675.132812 569.886719 C 674.765625 569.609375 674.410156 569.339844 674.0625 569.074219 C 671.417969 571.289062 668.457031 573.101562 665.285156 574.457031 Z M 665.285156 574.457031 "/>
<path style=" stroke:none;fill-rule:nonzero;fill:rgb(100%,100%,100%);fill-opacity:1;" d="M 674.109375 594.800781 C 673.679688 594.941406 673.246094 595.070312 672.808594 595.1875 C 672.675781 595.226562 672.539062 595.265625 672.40625 595.300781 C 661.230469 598.277344 649.304688 595.59375 640.476562 588.121094 C 640.324219 588.5625 640.167969 589 640.023438 589.449219 C 649.144531 596.957031 661.328125 599.605469 672.742188 596.566406 C 672.917969 596.519531 673.097656 596.472656 673.273438 596.417969 C 673.714844 596.296875 674.148438 596.164062 674.578125 596.03125 C 681.246094 593.882812 687.152344 589.863281 691.597656 584.449219 C 691.292969 584.128906 690.992188 583.808594 690.683594 583.492188 C 686.375 588.792969 680.617188 592.722656 674.109375 594.800781 Z M 674.109375 594.800781 "/>
<path style=" stroke:none;fill-rule:nonzero;fill:rgb(100%,100%,100%);fill-opacity:1;" d="M 679.847656 612.183594 C 679.414062 612.339844 678.976562 612.480469 678.539062 612.617188 C 678.070312 612.765625 677.597656 612.902344 677.125 613.03125 C 661.921875 617.058594 645.882812 610.585938 637.734375 597.128906 C 637.585938 597.71875 637.4375 598.300781 637.300781 598.886719 C 645.96875 612.144531 662.152344 618.355469 677.460938 614.296875 C 677.9375 614.167969 678.410156 614.035156 678.871094 613.886719 C 679.316406 613.753906 679.753906 613.613281 680.1875 613.460938 C 688.953125 610.378906 696.21875 604.078125 700.511719 595.835938 C 700.253906 595.40625 699.980469 594.984375 699.703125 594.554688 C 695.628906 602.789062 688.503906 609.113281 679.847656 612.183594 Z M 679.847656 612.183594 "/>
<path style=" stroke:none;fill-rule:nonzero;fill:rgb(24.705882%,23.921569%,33.72549%);fill-opacity:1;" d="M 442.714844 112.816406 C 442.714844 66.777344 410.625 29.453125 371.039062 29.453125 C 331.453125 29.453125 299.359375 66.777344 299.359375 112.816406 C 299.359375 154.574219 325.757812 189.160156 360.203125 195.234375 L 360.203125 203.089844 C 360.203125 206.179688 362.707031 208.6875 365.796875 208.6875 L 376.277344 208.6875 C 379.367188 208.6875 381.875 206.179688 381.875 203.089844 L 381.875 195.234375 C 416.316406 189.160156 442.714844 154.574219 442.714844 112.816406 Z M 442.714844 112.816406 "/>
<path style=" stroke:none;fill-rule:nonzero;fill:rgb(24.705882%,23.921569%,33.72549%);fill-opacity:1;" d="M 358.480469 201.957031 C 363.019531 197.691406 369.195312 195.625 375.382812 196.300781 C 381.632812 197.023438 387.179688 200.640625 390.363281 206.070312 C 393.539062 211.328125 394.246094 217.71875 392.296875 223.542969 C 390.414062 229.285156 386.40625 234.0625 382.300781 238.367188 C 377.996094 242.882812 373.308594 247.050781 369.261719 251.8125 C 355.707031 267.839844 350.882812 289.503906 356.355469 309.773438 C 359.90625 322.429688 367.242188 333.699219 377.378906 342.066406 C 378.664062 343.117188 379.992188 344.121094 381.355469 345.074219 C 382.933594 346.175781 384.425781 343.589844 382.863281 342.492188 C 371.859375 334.707031 363.726562 323.511719 359.722656 310.636719 C 353.546875 290.230469 358.523438 268.078125 372.828125 252.269531 C 377.097656 247.554688 381.882812 243.332031 386.152344 238.613281 C 390.242188 234.09375 393.972656 228.992188 395.570312 223.019531 C 397.203125 216.886719 396.324219 210.355469 393.125 204.875 C 389.9375 199.265625 384.558594 195.238281 378.28125 193.765625 C 372.03125 192.40625 365.5 193.539062 360.074219 196.917969 C 358.742188 197.765625 357.503906 198.746094 356.367188 199.84375 C 354.980469 201.179688 357.09375 203.289062 358.480469 201.957031 Z M 358.480469 201.957031 "/>
<path style=" stroke:none;fill-rule:nonzero;fill:rgb(24.705882%,23.921569%,33.72549%);fill-opacity:1;" d="M 166.507812 77.90625 C 144.574219 27.476562 91.648438 1.890625 48.289062 20.757812 C 4.929688 39.621094 -12.441406 95.796875 9.492188 146.226562 C 29.382812 191.960938 74.769531 217.265625 115.390625 207.503906 L 119.132812 216.105469 C 120.605469 219.492188 124.542969 221.042969 127.925781 219.570312 L 139.40625 214.574219 C 142.789062 213.101562 144.339844 209.164062 142.867188 205.78125 L 139.125 197.175781 C 173.960938 174.105469 186.398438 123.644531 166.507812 77.90625 Z M 166.507812 77.90625 "/>
<path style=" stroke:none;fill-rule:nonzero;fill:rgb(24.705882%,23.921569%,33.72549%);fill-opacity:1;" d="M 116.484375 215.429688 C 119.367188 208.789062 124.929688 203.679688 131.789062 201.378906 C 138.535156 199.105469 145.9375 199.929688 152.015625 203.625 C 158.277344 207.335938 162.636719 213.558594 163.984375 220.710938 C 165.515625 228.90625 163.03125 237.253906 160.210938 244.878906 C 157.253906 252.878906 153.566406 260.644531 151.507812 268.949219 C 145.699219 292.625 151.585938 317.648438 167.339844 336.25 C 177.121094 347.585938 190.003906 355.8125 204.398438 359.921875 C 206.164062 360.417969 207.949219 360.84375 209.746094 361.207031 C 211.625 361.589844 212.425781 358.710938 210.539062 358.328125 C 195.5625 355.242188 181.910156 347.582031 171.476562 336.398438 C 160.417969 324.4375 153.734375 309.078125 152.519531 292.828125 C 151.871094 284.597656 152.625 276.316406 154.753906 268.335938 C 157.023438 259.914062 160.863281 252.03125 163.757812 243.828125 C 166.523438 236 168.480469 227.59375 166.746094 219.308594 C 165.148438 212.015625 160.722656 205.652344 154.441406 201.617188 C 148.359375 197.605469 140.921875 196.203125 133.796875 197.71875 C 126.59375 199.351562 120.28125 203.667969 116.144531 209.789062 C 115.140625 211.316406 114.289062 212.9375 113.605469 214.632812 C 112.871094 216.410156 115.757812 217.183594 116.484375 215.429688 Z M 116.484375 215.429688 "/>
<path style=" stroke:none;fill-rule:nonzero;fill:rgb(100%,71.372549%,71.372549%);fill-opacity:1;" d="M 779.144531 687.019531 L 795.246094 687.019531 L 802.902344 624.910156 L 779.144531 624.914062 Z M 779.144531 687.019531 "/>
<path style=" stroke:none;fill-rule:nonzero;fill:rgb(18.431373%,18.039216%,25.490196%);fill-opacity:1;" d="M 775.039062 681.761719 L 806.746094 681.761719 C 817.902344 681.761719 826.949219 690.808594 826.949219 701.96875 L 826.949219 702.625 L 775.039062 702.628906 Z M 775.039062 681.761719 "/>
<path style=" stroke:none;fill-rule:nonzero;fill:rgb(100%,71.372549%,71.372549%);fill-opacity:1;" d="M 683.863281 673.328125 L 699.210938 678.183594 L 725.242188 621.277344 L 702.589844 614.109375 Z M 683.863281 673.328125 "/>
<path style=" stroke:none;fill-rule:nonzero;fill:rgb(18.431373%,18.039216%,25.490196%);fill-opacity:1;" d="M 681.53125 667.078125 L 711.761719 676.640625 C 722.398438 680.007812 728.296875 691.359375 724.929688 702.003906 L 724.734375 702.628906 L 675.242188 686.96875 Z M 681.53125 667.078125 "/>
<path style=" stroke:none;fill-rule:nonzero;fill:rgb(18.431373%,18.039216%,25.490196%);fill-opacity:1;" d="M 720.109375 403.367188 L 711.175781 428.570312 L 710.921875 564.621094 L 685.589844 657.769531 L 716.6875 666.449219 L 751.039062 578.617188 L 762.058594 501.472656 L 776.578125 579.066406 L 774.578125 671.292969 L 807.207031 671.292969 L 809.671875 529.171875 C 810.363281 489.257812 803.378906 449.582031 789.101562 412.304688 Z M 720.109375 403.367188 "/>
<path style=" stroke:none;fill-rule:nonzero;fill:rgb(89.411765%,89.411765%,89.411765%);fill-opacity:1;" d="M 709.472656 301.285156 L 762.210938 301.285156 L 784.246094 323.328125 L 790.832031 414.4375 L 711.175781 427.257812 L 685.589844 340.324219 L 699.523438 303.378906 Z M 709.472656 301.285156 "/>
<path style=" stroke:none;fill-rule:nonzero;fill:rgb(89.411765%,89.411765%,89.411765%);fill-opacity:1;" d="M 690.503906 341.195312 L 609.304688 310.636719 L 607.191406 298.003906 L 658.398438 254.664062 L 675.445312 267.449219 L 644.550781 301.285156 L 699.523438 303.378906 Z M 690.503906 341.195312 "/>
<path style=" stroke:none;fill-rule:nonzero;fill:rgb(100%,71.372549%,71.372549%);fill-opacity:1;" d="M 681.378906 259.257812 C 681.378906 266.507812 675.5 272.390625 668.25 272.390625 C 660.996094 272.390625 655.117188 266.507812 655.117188 259.257812 C 655.117188 252.003906 660.996094 246.121094 668.25 246.121094 C 675.5 246.121094 681.378906 252.003906 681.378906 259.257812 Z M 681.378906 259.257812 "/>
<path style=" stroke:none;fill-rule:nonzero;fill:rgb(18.431373%,18.039216%,25.490196%);fill-opacity:1;" d="M 698.699219 275.800781 L 704.632812 249.039062 C 709.007812 229.21875 728.632812 216.703125 748.445312 221.097656 C 768.261719 225.492188 780.753906 245.132812 776.339844 264.945312 L 770.40625 291.707031 C 769.8125 294.367188 767.179688 296.042969 764.523438 295.457031 L 702.449219 281.6875 C 699.792969 281.09375 698.113281 278.460938 698.699219 275.800781 Z M 698.699219 275.800781 "/>
<path style=" stroke:none;fill-rule:nonzero;fill:rgb(100%,71.372549%,71.372549%);fill-opacity:1;" d="M 757.945312 252.527344 C 762.085938 266.8125 753.863281 281.75 739.578125 285.890625 C 725.296875 290.027344 710.363281 281.804688 706.226562 267.519531 C 702.085938 253.230469 710.308594 238.296875 724.59375 234.15625 C 738.875 230.015625 753.808594 238.242188 757.945312 252.527344 Z M 757.945312 252.527344 "/>
<path style=" stroke:none;fill-rule:nonzero;fill:rgb(18.431373%,18.039216%,25.490196%);fill-opacity:1;" d="M 695.679688 249.300781 C 699.167969 233.644531 714.667969 223.769531 730.328125 227.222656 L 735.679688 228.410156 C 751.332031 231.902344 761.207031 247.40625 757.75 263.070312 L 757.632812 263.605469 L 746.324219 261.09375 L 744.863281 249.4375 L 741.695312 260.070312 L 735.851562 258.773438 L 735.113281 252.890625 L 733.515625 258.253906 L 695.558594 249.835938 Z M 695.679688 249.300781 "/>
<path style=" stroke:none;fill-rule:nonzero;fill:rgb(18.431373%,18.039216%,25.490196%);fill-opacity:1;" d="M 722.863281 289.375 C 722.105469 287.664062 722.394531 285.675781 723.605469 284.25 C 731.667969 274.71875 744.027344 256.546875 736.214844 241.914062 L 735.652344 240.863281 L 766.246094 247.652344 L 756.058594 293.59375 L 727.179688 292.335938 C 726.886719 292.324219 726.597656 292.285156 726.308594 292.222656 C 724.769531 291.878906 723.488281 290.820312 722.863281 289.375 Z M 722.863281 289.375 "/>
<path style=" stroke:none;fill-rule:nonzero;fill:rgb(89.411765%,89.411765%,89.411765%);fill-opacity:1;" d="M 760.113281 301.835938 L 846.007812 314.050781 L 850.808594 325.925781 L 810.214844 379.34375 L 790.804688 370.558594 L 813.625 330.828125 L 759.507812 340.710938 Z M 760.113281 301.835938 "/>
<path style=" stroke:none;fill-rule:nonzero;fill:rgb(24.705882%,23.921569%,33.72549%);fill-opacity:1;" d="M 888.710938 128.648438 C 888.710938 73.652344 850.378906 29.074219 803.09375 29.074219 C 755.808594 29.074219 717.480469 73.652344 717.480469 128.648438 C 717.480469 178.523438 749.011719 219.835938 790.152344 227.089844 L 790.152344 236.476562 C 790.152344 240.167969 793.144531 243.160156 796.835938 243.160156 L 809.355469 243.160156 C 813.042969 243.160156 816.035156 240.167969 816.035156 236.476562 L 816.035156 227.089844 C 857.179688 219.835938 888.710938 178.523438 888.710938 128.648438 Z M 888.710938 128.648438 "/>
<path style=" stroke:none;fill-rule:nonzero;fill:rgb(24.705882%,23.921569%,33.72549%);fill-opacity:1;" d="M 787.890625 234.914062 C 793.390625 229.742188 800.882812 227.246094 808.386719 228.085938 C 815.765625 228.953125 822.335938 233.171875 826.199219 239.519531 C 830.128906 245.777344 831.125 253.4375 828.921875 260.492188 C 826.8125 267.332031 822.175781 273.0625 817.34375 278.195312 C 812.1875 283.671875 806.539062 288.679688 801.609375 294.371094 C 785.296875 313.332031 779.347656 339.101562 785.6875 363.296875 C 789.867188 378.617188 798.699219 392.261719 810.964844 402.34375 C 812.453125 403.554688 813.988281 404.714844 815.5625 405.8125 C 817.140625 406.917969 818.636719 404.328125 817.070312 403.234375 C 803.9375 393.949219 794.207031 380.609375 789.378906 365.265625 C 781.917969 340.90625 787.714844 314.417969 804.671875 295.40625 C 809.738281 289.75 815.445312 284.707031 820.570312 279.105469 C 825.476562 273.742188 829.980469 267.714844 832 260.625 C 834.046875 253.394531 833.121094 245.640625 829.421875 239.097656 C 825.738281 232.398438 819.425781 227.539062 812.007812 225.691406 C 804.550781 223.976562 796.71875 225.277344 790.214844 229.308594 C 788.621094 230.316406 787.132812 231.488281 785.777344 232.800781 C 784.390625 234.140625 786.503906 236.25 787.890625 234.914062 Z M 787.890625 234.914062 "/>
<path style=" stroke:none;fill-rule:nonzero;fill:rgb(100%,71.372549%,71.372549%);fill-opacity:1;" d="M 811.375 381.402344 C 811.375 388.65625 805.496094 394.535156 798.242188 394.535156 C 790.992188 394.535156 785.113281 388.65625 785.113281 381.402344 C 785.113281 374.148438 790.992188 368.265625 798.242188 368.265625 C 805.496094 368.265625 811.375 374.148438 811.375 381.402344 Z M 811.375 381.402344 "/>
<path style=" stroke:none;fill-rule:nonzero;fill:rgb(24.705882%,23.921569%,33.72549%);fill-opacity:1;" d="M 661.410156 262.941406 C 660.722656 264.03125 659.054688 263.875 658.117188 263.191406 C 656.816406 262.246094 657.238281 260.425781 658.132812 259.351562 C 660.980469 255.929688 665.691406 259.542969 666.324219 262.9375 C 666.808594 266.320312 665.226562 269.667969 662.308594 271.445312 C 659.058594 273.371094 654.835938 272.40625 652.042969 270.101562 C 646.214844 265.292969 647.804688 255.664062 654.277344 252.1875 C 658.40625 249.964844 663.628906 250.941406 667.699219 252.800781 C 672.277344 254.894531 676.21875 258.101562 680.453125 260.777344 C 689.75 266.597656 700.261719 270.1875 711.175781 271.269531 C 713.085938 271.464844 713.074219 268.476562 711.175781 268.28125 C 705.128906 267.65625 699.191406 266.226562 693.523438 264.03125 C 687.914062 261.757812 682.589844 258.832031 677.660156 255.320312 C 672.671875 251.902344 667.460938 248.582031 661.289062 248.015625 C 656.21875 247.421875 651.222656 249.597656 648.199219 253.714844 C 645.519531 257.378906 644.714844 262.089844 646.019531 266.4375 C 647.597656 271.007812 651.507812 274.375 656.257812 275.257812 C 660.863281 276.125 665.511719 273.976562 667.832031 269.90625 C 670.105469 265.976562 670.03125 260.699219 666.601562 257.4375 C 664.597656 255.402344 661.652344 254.601562 658.894531 255.34375 C 656.347656 256.203125 654.546875 258.496094 654.3125 261.175781 C 653.984375 266.277344 661.222656 268.828125 663.992188 264.449219 C 665.019531 262.820312 662.4375 261.320312 661.410156 262.941406 Z M 661.410156 262.941406 "/>
<path style=" stroke:none;fill-rule:nonzero;fill:rgb(89.411765%,89.411765%,89.411765%);fill-opacity:1;" d="M 63.910156 423.484375 L 59.964844 428.433594 L 46.011719 420.179688 L 49.957031 415.226562 Z M 63.910156 423.484375 "/>
<path style=" stroke:none;fill-rule:nonzero;fill:rgb(89.411765%,89.411765%,89.411765%);fill-opacity:1;" d="M 78.464844 444.753906 L 81.949219 449.953125 L 67.292969 457.246094 L 63.808594 452.046875 Z M 78.464844 444.753906 "/>
<path style=" stroke:none;fill-rule:nonzero;fill:rgb(89.411765%,89.411765%,89.411765%);fill-opacity:1;" d="M 93.636719 422.144531 L 100.601562 422.390625 L 99.90625 436.960938 L 92.945312 436.714844 Z M 93.636719 422.144531 "/>
<path style=" stroke:none;fill-rule:nonzero;fill:rgb(89.411765%,89.411765%,89.411765%);fill-opacity:1;" d="M 228.167969 29.167969 L 224.226562 34.117188 L 210.273438 25.863281 L 214.21875 20.910156 Z M 228.167969 29.167969 "/>
<path style=" stroke:none;fill-rule:nonzero;fill:rgb(89.411765%,89.411765%,89.411765%);fill-opacity:1;" d="M 242.726562 50.4375 L 246.210938 55.636719 L 231.554688 62.929688 L 228.070312 57.726562 Z M 242.726562 50.4375 "/>
<path style=" stroke:none;fill-rule:nonzero;fill:rgb(89.411765%,89.411765%,89.411765%);fill-opacity:1;" d="M 257.898438 27.828125 L 264.859375 28.070312 L 264.167969 42.644531 L 257.207031 42.398438 Z M 257.898438 27.828125 "/>
<path style=" stroke:none;fill-rule:nonzero;fill:rgb(89.411765%,89.411765%,89.411765%);fill-opacity:1;" d="M 615.425781 80.945312 L 611.484375 85.894531 L 597.53125 77.640625 L 601.476562 72.691406 Z M 615.425781 80.945312 "/>
<path style=" stroke:none;fill-rule:nonzero;fill:rgb(89.411765%,89.411765%,89.411765%);fill-opacity:1;" d="M 629.984375 102.214844 L 633.46875 107.414062 L 618.8125 114.707031 L 615.328125 109.507812 Z M 629.984375 102.214844 "/>
<path style=" stroke:none;fill-rule:nonzero;fill:rgb(89.411765%,89.411765%,89.411765%);fill-opacity:1;" d="M 645.15625 79.605469 L 652.117188 79.851562 L 651.425781 94.421875 L 644.464844 94.175781 Z M 645.15625 79.605469 "/>
<path style=" stroke:none;fill-rule:nonzero;fill:rgb(89.411765%,89.411765%,89.411765%);fill-opacity:1;" d="M 496.960938 8.253906 L 493.015625 13.207031 L 479.066406 4.949219 L 483.007812 0 Z M 496.960938 8.253906 "/>
<path style=" stroke:none;fill-rule:nonzero;fill:rgb(89.411765%,89.411765%,89.411765%);fill-opacity:1;" d="M 511.515625 29.523438 L 515 34.726562 L 500.347656 42.019531 L 496.863281 36.816406 Z M 511.515625 29.523438 "/>
<path style=" stroke:none;fill-rule:nonzero;fill:rgb(89.411765%,89.411765%,89.411765%);fill-opacity:1;" d="M 526.6875 6.914062 L 533.652344 7.160156 L 532.957031 21.734375 L 525.996094 21.488281 Z M 526.6875 6.914062 "/>
<path style=" stroke:none;fill-rule:nonzero;fill:rgb(89.411765%,89.411765%,89.411765%);fill-opacity:1;" d="M 613.460938 386.121094 L 617.402344 380.375 L 631.355469 389.957031 L 627.410156 395.703125 Z M 613.460938 386.121094 "/>
<path style=" stroke:none;fill-rule:nonzero;fill:rgb(89.411765%,89.411765%,89.411765%);fill-opacity:1;" d="M 634.742188 429.148438 L 631.257812 423.109375 L 645.914062 414.644531 L 649.398438 420.683594 Z M 634.742188 429.148438 "/>
<path style=" stroke:none;fill-rule:nonzero;fill:rgb(89.411765%,89.411765%,89.411765%);fill-opacity:1;" d="M 667.355469 405.601562 L 660.390625 405.316406 L 661.085938 388.402344 L 668.046875 388.6875 Z M 667.355469 405.601562 "/>
<path style=" stroke:none;fill-rule:nonzero;fill:rgb(100%,71.372549%,71.372549%);fill-opacity:1;" d="M 321.453125 641.136719 L 333.511719 639.269531 L 325.246094 542.878906 L 298.367188 547.859375 Z M 321.453125 641.136719 "/>
<path style=" stroke:none;fill-rule:nonzero;fill:rgb(18.431373%,18.039216%,25.490196%);fill-opacity:1;" d="M 317.765625 637.671875 L 341.519531 633.996094 C 349.882812 632.707031 357.707031 638.4375 359 646.796875 L 359.074219 647.289062 L 320.183594 653.304688 Z M 317.765625 637.671875 "/>
<path style=" stroke:none;fill-rule:nonzero;fill:rgb(100%,71.372549%,71.372549%);fill-opacity:1;" d="M 194.6875 639.941406 L 206.878906 640.457031 L 221.710938 554.828125 L 194.832031 554.828125 Z M 194.6875 639.941406 "/>
<path style=" stroke:none;fill-rule:nonzero;fill:rgb(18.431373%,18.039216%,25.490196%);fill-opacity:1;" d="M 191.746094 635.824219 L 215.757812 636.847656 L 215.761719 636.847656 C 224.210938 637.210938 230.769531 644.355469 230.410156 652.808594 L 230.390625 653.304688 L 191.070312 651.628906 Z M 191.746094 635.824219 "/>
<path style=" stroke:none;fill-rule:nonzero;fill:rgb(100%,71.372549%,71.372549%);fill-opacity:1;" d="M 218.695312 360.949219 C 218.117188 360.789062 217.527344 360.679688 216.933594 360.621094 L 224.535156 298.386719 L 250.328125 243.753906 C 253.695312 236.621094 250.972656 228.101562 244.097656 224.242188 C 237.222656 220.386719 228.53125 222.507812 224.207031 229.097656 C 217.445312 239.394531 212.332031 250.679688 209.046875 262.550781 L 198.210938 301.738281 L 206.136719 368.945312 C 205.289062 374.222656 208.761719 379.226562 213.996094 380.28125 C 219.234375 381.335938 224.371094 378.066406 225.632812 372.875 C 226.894531 367.679688 223.832031 362.417969 218.695312 360.949219 Z M 218.695312 360.949219 "/>
<path style=" stroke:none;fill-rule:nonzero;fill:rgb(18.431373%,18.039216%,25.490196%);fill-opacity:1;" d="M 234.355469 303.65625 L 201.765625 266.367188 L 217.910156 228.386719 C 222.304688 218.046875 234.144531 213.097656 244.59375 217.234375 C 255.039062 221.371094 260.28125 233.089844 256.40625 243.636719 Z M 234.355469 303.65625 "/>
<path style=" stroke:none;fill-rule:nonzero;fill:rgb(100%,71.372549%,71.372549%);fill-opacity:1;" d="M 276.75 144.613281 C 291.09375 152.453125 296.363281 170.441406 288.523438 184.785156 C 280.683594 199.132812 262.703125 204.402344 248.359375 196.5625 C 234.015625 188.71875 228.746094 170.734375 236.585938 156.386719 C 244.425781 142.042969 262.410156 136.769531 276.75 144.613281 Z M 276.75 144.613281 "/>
<path style=" stroke:none;fill-rule:nonzero;fill:rgb(18.431373%,18.039216%,25.490196%);fill-opacity:1;" d="M 267.503906 134.621094 L 248.386719 134.621094 C 235.851562 134.621094 225.691406 146.054688 225.691406 160.160156 L 226.578125 194.367188 C 240.121094 196.050781 253.367188 199.597656 265.941406 204.898438 L 267.726562 197.277344 L 271.246094 207.3125 C 274.375 208.832031 277.480469 210.488281 280.558594 212.289062 C 276.964844 195.410156 275.488281 178.570312 277.953125 165.492188 L 284.429688 165.492188 L 284.429688 158.402344 L 286.625 165.492188 L 298.367188 165.492188 C 298.367188 148.441406 284.546875 134.621094 267.503906 134.621094 Z M 267.503906 134.621094 "/>
<path style=" stroke:none;fill-rule:nonzero;fill:rgb(18.431373%,18.039216%,25.490196%);fill-opacity:1;" d="M 329.839844 548.117188 L 327.070312 548.785156 L 324.746094 505.539062 L 307.824219 376.09375 L 288.410156 326.800781 L 297.867188 292.449219 C 297.867188 292.449219 308.816406 268.550781 281.441406 250.128906 L 259.539062 213.285156 C 244.410156 203.390625 231.964844 209.863281 225.328125 226.679688 C 219.546875 241.332031 215.058594 259.871094 217.726562 279.007812 C 223.707031 321.867188 228.679688 326.800781 228.679688 326.800781 C 228.679688 326.800781 191.347656 368.125 199.3125 420.902344 L 194.871094 557.542969 L 190.8125 557.375 L 190.367188 568.226562 L 225.84375 569.683594 L 226.289062 558.828125 L 223.34375 558.710938 L 236.144531 504.542969 L 255.058594 432.847656 L 287.914062 520.476562 L 298.960938 555.554688 L 295.320312 556.433594 L 297.863281 566.992188 L 332.382812 558.675781 Z M 329.839844 548.117188 "/>
<path style=" stroke:none;fill-rule:nonzero;fill:rgb(100%,71.372549%,71.372549%);fill-opacity:1;" d="M 354.21875 302.75 C 353.820312 303.191406 353.457031 303.667969 353.140625 304.175781 L 300.871094 269.566406 L 263.53125 222.074219 C 258.65625 215.875 249.820312 214.503906 243.296875 218.933594 C 236.773438 223.363281 234.789062 232.085938 238.75 238.902344 C 244.9375 249.554688 252.75 259.171875 261.898438 267.414062 L 292.109375 294.621094 L 355.761719 317.558594 C 360.101562 320.671875 366.128906 319.804688 369.414062 315.585938 C 372.695312 311.371094 372.066406 305.316406 367.984375 301.867188 C 363.902344 298.417969 357.828125 298.804688 354.21875 302.75 Z M 354.21875 302.75 "/>
<path style=" stroke:none;fill-rule:nonzero;fill:rgb(18.431373%,18.039216%,25.490196%);fill-opacity:1;" d="M 309.972656 263.136719 L 262.0625 275.636719 L 235.304688 244.21875 C 228.015625 235.664062 228.878906 222.859375 237.25 215.359375 C 245.617188 207.859375 258.4375 208.40625 266.144531 216.585938 Z M 309.972656 263.136719 "/>
<path style=" stroke:none;fill-rule:nonzero;fill:rgb(79.215686%,79.215686%,79.215686%);fill-opacity:1;" d="M 681.328125 654.320312 L 36.933594 654.320312 C 36.28125 654.320312 35.75 653.789062 35.75 653.132812 C 35.75 652.480469 36.28125 651.949219 36.933594 651.949219 L 681.328125 651.949219 C 681.984375 651.949219 682.515625 652.480469 682.515625 653.132812 C 682.515625 653.789062 681.984375 654.320312 681.328125 654.320312 Z M 681.328125 654.320312 "/>
</g>
</svg>
